G04 #@! TF.GenerationSoftware,KiCad,Pcbnew,(5.1.7)-1*
G04 #@! TF.CreationDate,2020-12-20T14:57:21+09:00*
G04 #@! TF.ProjectId,pcbkicad,7063626b-6963-4616-942e-6b696361645f,rev?*
G04 #@! TF.SameCoordinates,Original*
G04 #@! TF.FileFunction,Copper,L1,Top*
G04 #@! TF.FilePolarity,Positive*
%FSLAX46Y46*%
G04 Gerber Fmt 4.6, Leading zero omitted, Abs format (unit mm)*
G04 Created by KiCad (PCBNEW (5.1.7)-1) date 2020-12-20 14:57:21*
%MOMM*%
%LPD*%
G01*
G04 APERTURE LIST*
G04 #@! TA.AperFunction,SMDPad,CuDef*
%ADD10R,1.400000X1.600000*%
G04 #@! TD*
G04 #@! TA.AperFunction,ComponentPad*
%ADD11O,1.600000X0.900000*%
G04 #@! TD*
G04 #@! TA.AperFunction,SMDPad,CuDef*
%ADD12R,1.900000X1.900000*%
G04 #@! TD*
G04 #@! TA.AperFunction,SMDPad,CuDef*
%ADD13R,1.350000X0.400000*%
G04 #@! TD*
G04 #@! TA.AperFunction,ComponentPad*
%ADD14R,1.651000X1.651000*%
G04 #@! TD*
G04 #@! TA.AperFunction,ComponentPad*
%ADD15C,1.651000*%
G04 #@! TD*
G04 #@! TA.AperFunction,Conductor*
%ADD16C,1.000000*%
G04 #@! TD*
G04 #@! TA.AperFunction,Conductor*
%ADD17C,0.399800*%
G04 #@! TD*
G04 APERTURE END LIST*
D10*
X184526080Y-87270000D03*
D11*
X186780000Y-87170000D03*
D12*
X186780000Y-89270000D03*
X186780000Y-91670000D03*
D11*
X186780000Y-93770000D03*
D10*
X184526080Y-93870000D03*
D13*
X184105000Y-89172060D03*
X184105000Y-89822300D03*
X184105000Y-90470000D03*
X184105000Y-91117700D03*
X184105000Y-91767940D03*
D14*
X130812000Y-101620000D03*
D15*
X128272000Y-101620000D03*
X125732000Y-101620000D03*
D14*
X123192000Y-101620000D03*
D15*
X123192000Y-99080000D03*
X125732000Y-99080000D03*
X128272000Y-99080000D03*
X130812000Y-99080000D03*
X151132000Y-101620000D03*
X153672000Y-101620000D03*
X156212000Y-101620000D03*
X158752000Y-101620000D03*
X161292000Y-101620000D03*
X163832000Y-101620000D03*
X166372000Y-101620000D03*
D14*
X168912000Y-101620000D03*
X168912000Y-78760500D03*
D15*
X166372000Y-78760500D03*
X163832000Y-78760500D03*
X161292000Y-78760500D03*
X158752000Y-78760500D03*
X156212000Y-78760500D03*
X153672000Y-78760500D03*
X151132000Y-78760500D03*
D14*
X113032000Y-78760500D03*
D15*
X115572000Y-78760500D03*
X118112000Y-78760500D03*
X120652000Y-78760500D03*
X123192000Y-78760500D03*
X125732000Y-78760500D03*
X128272000Y-78760500D03*
X130812000Y-78760500D03*
D16*
X123192000Y-78760500D02*
X124735600Y-80304100D01*
X124735600Y-80304100D02*
X145278200Y-80304100D01*
X145278200Y-80304100D02*
X148379200Y-77203100D01*
X148379200Y-77203100D02*
X154654600Y-77203100D01*
X154654600Y-77203100D02*
X156212000Y-78760500D01*
X158752000Y-78760500D02*
X155994300Y-76002800D01*
X155994300Y-76002800D02*
X131029700Y-76002800D01*
X131029700Y-76002800D02*
X128272000Y-78760500D01*
D17*
X183703300Y-88770400D02*
X184105000Y-89172100D01*
D16*
X183266478Y-88770400D02*
X183703300Y-88770400D01*
X171731077Y-77234999D02*
X183266478Y-88770400D01*
X166730068Y-77234999D02*
X171731077Y-77234999D01*
X166372000Y-77593067D02*
X166730068Y-77234999D01*
X166372000Y-78760500D02*
X166372000Y-77593067D01*
X178738100Y-92018100D02*
X183854800Y-92018100D01*
X126289600Y-92018100D02*
X178738100Y-92018100D01*
X113032000Y-80586000D02*
X114857500Y-80586000D01*
X114857500Y-80586000D02*
X126289600Y-92018100D01*
D17*
X183854800Y-92018100D02*
X184105000Y-91767900D01*
D16*
X126289600Y-92018100D02*
X126289600Y-95982400D01*
X126289600Y-95982400D02*
X123192000Y-99080000D01*
X113032000Y-78760500D02*
X113032000Y-80586000D01*
X182169600Y-92018100D02*
X183854800Y-92018100D01*
X168912000Y-78760500D02*
X182169600Y-92018100D01*
X156212000Y-101620000D02*
X154686100Y-103145900D01*
X154686100Y-103145900D02*
X129669900Y-103145900D01*
X129669900Y-103145900D02*
X128272000Y-101748000D01*
X128272000Y-101748000D02*
X128272000Y-101620000D01*
X130812000Y-99080000D02*
X130812000Y-99794500D01*
X153672000Y-101620000D02*
X151132000Y-99080000D01*
X151132000Y-99080000D02*
X130812000Y-99080000D01*
X130812000Y-101620000D02*
X130812000Y-99794500D01*
X186780000Y-91670000D02*
X186780000Y-89270000D01*
X184526100Y-87270000D02*
X186226100Y-87270000D01*
X186780000Y-87170000D02*
X186326100Y-87170000D01*
X186326100Y-87170000D02*
X186226100Y-87270000D01*
M02*
