G04 #@! TF.GenerationSoftware,KiCad,Pcbnew,(5.1.7)-1*
G04 #@! TF.CreationDate,2020-12-20T14:57:21+09:00*
G04 #@! TF.ProjectId,pcbkicad,7063626b-6963-4616-942e-6b696361645f,rev?*
G04 #@! TF.SameCoordinates,Original*
G04 #@! TF.FileFunction,Legend,Top*
G04 #@! TF.FilePolarity,Positive*
%FSLAX46Y46*%
G04 Gerber Fmt 4.6, Leading zero omitted, Abs format (unit mm)*
G04 Created by KiCad (PCBNEW (5.1.7)-1) date 2020-12-20 14:57:21*
%MOMM*%
%LPD*%
G01*
G04 APERTURE LIST*
%ADD10C,0.150000*%
%ADD11C,0.127000*%
%ADD12C,0.100000*%
G04 APERTURE END LIST*
D10*
X109439119Y-79642880D02*
X109439119Y-79166690D01*
X110439119Y-79166690D01*
X110439119Y-79880976D02*
X110439119Y-80547642D01*
X109439119Y-79880976D01*
X109439119Y-80547642D01*
X109439119Y-80928595D02*
X110439119Y-80928595D01*
X110439119Y-81309547D01*
X110391500Y-81404785D01*
X110343880Y-81452404D01*
X110248642Y-81500023D01*
X110105785Y-81500023D01*
X110010547Y-81452404D01*
X109962928Y-81404785D01*
X109915309Y-81309547D01*
X109915309Y-80928595D01*
X109962928Y-81928595D02*
X109962928Y-82261928D01*
X109439119Y-82404785D02*
X109439119Y-81928595D01*
X110439119Y-81928595D01*
X110439119Y-82404785D01*
X109439119Y-83309547D02*
X109439119Y-82833357D01*
X110439119Y-82833357D01*
X109820071Y-83642880D02*
X109820071Y-84404785D01*
X109439119Y-84880976D02*
X110439119Y-84880976D01*
X109724833Y-85214309D01*
X110439119Y-85547642D01*
X109439119Y-85547642D01*
X110439119Y-86214309D02*
X110439119Y-86404785D01*
X110391500Y-86500023D01*
X110296261Y-86595261D01*
X110105785Y-86642880D01*
X109772452Y-86642880D01*
X109581976Y-86595261D01*
X109486738Y-86500023D01*
X109439119Y-86404785D01*
X109439119Y-86214309D01*
X109486738Y-86119071D01*
X109581976Y-86023833D01*
X109772452Y-85976214D01*
X110105785Y-85976214D01*
X110296261Y-86023833D01*
X110391500Y-86119071D01*
X110439119Y-86214309D01*
X110439119Y-86928595D02*
X110439119Y-87500023D01*
X109439119Y-87214309D02*
X110439119Y-87214309D01*
X109439119Y-87833357D02*
X110439119Y-87833357D01*
X109962928Y-87833357D02*
X109962928Y-88404785D01*
X109439119Y-88404785D02*
X110439119Y-88404785D01*
X109962928Y-88880976D02*
X109962928Y-89214309D01*
X109439119Y-89357166D02*
X109439119Y-88880976D01*
X110439119Y-88880976D01*
X110439119Y-89357166D01*
X109439119Y-90357166D02*
X109915309Y-90023833D01*
X109439119Y-89785738D02*
X110439119Y-89785738D01*
X110439119Y-90166690D01*
X110391500Y-90261928D01*
X110343880Y-90309547D01*
X110248642Y-90357166D01*
X110105785Y-90357166D01*
X110010547Y-90309547D01*
X109962928Y-90261928D01*
X109915309Y-90166690D01*
X109915309Y-89785738D01*
X109962928Y-91119071D02*
X109915309Y-91261928D01*
X109867690Y-91309547D01*
X109772452Y-91357166D01*
X109629595Y-91357166D01*
X109534357Y-91309547D01*
X109486738Y-91261928D01*
X109439119Y-91166690D01*
X109439119Y-90785738D01*
X110439119Y-90785738D01*
X110439119Y-91119071D01*
X110391500Y-91214309D01*
X110343880Y-91261928D01*
X110248642Y-91309547D01*
X110153404Y-91309547D01*
X110058166Y-91261928D01*
X110010547Y-91214309D01*
X109962928Y-91119071D01*
X109962928Y-90785738D01*
X110439119Y-91976214D02*
X110439119Y-92166690D01*
X110391500Y-92261928D01*
X110296261Y-92357166D01*
X110105785Y-92404785D01*
X109772452Y-92404785D01*
X109581976Y-92357166D01*
X109486738Y-92261928D01*
X109439119Y-92166690D01*
X109439119Y-91976214D01*
X109486738Y-91880976D01*
X109581976Y-91785738D01*
X109772452Y-91738119D01*
X110105785Y-91738119D01*
X110296261Y-91785738D01*
X110391500Y-91880976D01*
X110439119Y-91976214D01*
X109724833Y-92785738D02*
X109724833Y-93261928D01*
X109439119Y-92690500D02*
X110439119Y-93023833D01*
X109439119Y-93357166D01*
X109439119Y-94261928D02*
X109915309Y-93928595D01*
X109439119Y-93690500D02*
X110439119Y-93690500D01*
X110439119Y-94071452D01*
X110391500Y-94166690D01*
X110343880Y-94214309D01*
X110248642Y-94261928D01*
X110105785Y-94261928D01*
X110010547Y-94214309D01*
X109962928Y-94166690D01*
X109915309Y-94071452D01*
X109915309Y-93690500D01*
X109439119Y-94690500D02*
X110439119Y-94690500D01*
X110439119Y-94928595D01*
X110391500Y-95071452D01*
X110296261Y-95166690D01*
X110201023Y-95214309D01*
X110010547Y-95261928D01*
X109867690Y-95261928D01*
X109677214Y-95214309D01*
X109581976Y-95166690D01*
X109486738Y-95071452D01*
X109439119Y-94928595D01*
X109439119Y-94690500D01*
X109820071Y-95690500D02*
X109820071Y-96452404D01*
X109724833Y-96880976D02*
X109724833Y-97357166D01*
X109439119Y-96785738D02*
X110439119Y-97119071D01*
X109439119Y-97452404D01*
X110105785Y-98452404D02*
X109439119Y-98690500D01*
X110105785Y-98928595D01*
X109439119Y-99833357D02*
X109439119Y-99261928D01*
X109439119Y-99547642D02*
X110439119Y-99547642D01*
X110296261Y-99452404D01*
X110201023Y-99357166D01*
X110153404Y-99261928D01*
X109534357Y-100261928D02*
X109486738Y-100309547D01*
X109439119Y-100261928D01*
X109486738Y-100214309D01*
X109534357Y-100261928D01*
X109439119Y-100261928D01*
X110439119Y-100928595D02*
X110439119Y-101023833D01*
X110391500Y-101119071D01*
X110343880Y-101166690D01*
X110248642Y-101214309D01*
X110058166Y-101261928D01*
X109820071Y-101261928D01*
X109629595Y-101214309D01*
X109534357Y-101166690D01*
X109486738Y-101119071D01*
X109439119Y-101023833D01*
X109439119Y-100928595D01*
X109486738Y-100833357D01*
X109534357Y-100785738D01*
X109629595Y-100738119D01*
X109820071Y-100690500D01*
X110058166Y-100690500D01*
X110248642Y-100738119D01*
X110343880Y-100785738D01*
X110391500Y-100833357D01*
X110439119Y-100928595D01*
X106139119Y-87357166D02*
X106186738Y-87261928D01*
X106281976Y-87214309D01*
X107139119Y-87214309D01*
X106805785Y-87642880D02*
X106805785Y-88166690D01*
X106139119Y-87642880D01*
X106139119Y-88166690D01*
X106805785Y-88547642D02*
X105805785Y-88547642D01*
X106758166Y-88547642D02*
X106805785Y-88642880D01*
X106805785Y-88833357D01*
X106758166Y-88928595D01*
X106710547Y-88976214D01*
X106615309Y-89023833D01*
X106329595Y-89023833D01*
X106234357Y-88976214D01*
X106186738Y-88928595D01*
X106139119Y-88833357D01*
X106139119Y-88642880D01*
X106186738Y-88547642D01*
X106186738Y-89833357D02*
X106139119Y-89738119D01*
X106139119Y-89547642D01*
X106186738Y-89452404D01*
X106281976Y-89404785D01*
X106662928Y-89404785D01*
X106758166Y-89452404D01*
X106805785Y-89547642D01*
X106805785Y-89738119D01*
X106758166Y-89833357D01*
X106662928Y-89880976D01*
X106567690Y-89880976D01*
X106472452Y-89404785D01*
X106139119Y-90452404D02*
X106186738Y-90357166D01*
X106281976Y-90309547D01*
X107139119Y-90309547D01*
X106234357Y-90833357D02*
X106186738Y-90880976D01*
X106139119Y-90833357D01*
X106186738Y-90785738D01*
X106234357Y-90833357D01*
X106139119Y-90833357D01*
X106805785Y-91309547D02*
X106139119Y-91309547D01*
X106710547Y-91309547D02*
X106758166Y-91357166D01*
X106805785Y-91452404D01*
X106805785Y-91595261D01*
X106758166Y-91690500D01*
X106662928Y-91738119D01*
X106139119Y-91738119D01*
X106186738Y-92595261D02*
X106139119Y-92500023D01*
X106139119Y-92309547D01*
X106186738Y-92214309D01*
X106281976Y-92166690D01*
X106662928Y-92166690D01*
X106758166Y-92214309D01*
X106805785Y-92309547D01*
X106805785Y-92500023D01*
X106758166Y-92595261D01*
X106662928Y-92642880D01*
X106567690Y-92642880D01*
X106472452Y-92166690D01*
X106805785Y-92928595D02*
X106805785Y-93309547D01*
X107139119Y-93071452D02*
X106281976Y-93071452D01*
X106186738Y-93119071D01*
X106139119Y-93214309D01*
X106139119Y-93309547D01*
D11*
X188930000Y-94045000D02*
X189505000Y-94520000D01*
X188930000Y-94020000D02*
X188930000Y-86920000D01*
X189505000Y-94520000D02*
X189505000Y-86420000D01*
X183830000Y-92120000D02*
X183830000Y-92920000D01*
X183830000Y-88820000D02*
X183830000Y-88195000D01*
X185397300Y-86920000D02*
X185798620Y-86920000D01*
X187705000Y-86920000D02*
X188903880Y-86920000D01*
X188903880Y-94020000D02*
X187730000Y-94020000D01*
X185805000Y-94020000D02*
X185405280Y-94020000D01*
D12*
X188895000Y-86900000D02*
X189505000Y-86395000D01*
D11*
X132082000Y-97810000D02*
X132082000Y-102890000D01*
X132082000Y-102890000D02*
X121922000Y-102890000D01*
X121922000Y-102890000D02*
X121922000Y-97810000D01*
X121922000Y-97810000D02*
X132082000Y-97810000D01*
X170182000Y-100350000D02*
X170182000Y-102890000D01*
X170182000Y-102890000D02*
X149862000Y-102890000D01*
X149862000Y-102890000D02*
X149862000Y-100350000D01*
X149862000Y-100350000D02*
X170182000Y-100350000D01*
X149862000Y-77490500D02*
X170182000Y-77490500D01*
X149862000Y-80030500D02*
X149862000Y-77490500D01*
X170182000Y-80030500D02*
X149862000Y-80030500D01*
X170182000Y-77490500D02*
X170182000Y-80030500D01*
X132082000Y-80030500D02*
X111762000Y-80030500D01*
X132082000Y-77490500D02*
X132082000Y-80030500D01*
X111762000Y-77490500D02*
X132082000Y-77490500D01*
X111762000Y-80030500D02*
X111762000Y-77490500D01*
D10*
X104394380Y-75642880D02*
X104061047Y-75166690D01*
X103822952Y-75642880D02*
X103822952Y-74642880D01*
X104203904Y-74642880D01*
X104299142Y-74690500D01*
X104346761Y-74738119D01*
X104394380Y-74833357D01*
X104394380Y-74976214D01*
X104346761Y-75071452D01*
X104299142Y-75119071D01*
X104203904Y-75166690D01*
X103822952Y-75166690D01*
X104822952Y-75119071D02*
X105156285Y-75119071D01*
X105299142Y-75642880D02*
X104822952Y-75642880D01*
X104822952Y-74642880D01*
X105299142Y-74642880D01*
X106061047Y-75119071D02*
X105727714Y-75119071D01*
X105727714Y-75642880D02*
X105727714Y-74642880D01*
X106203904Y-74642880D01*
X106537238Y-74738119D02*
X106584857Y-74690500D01*
X106680095Y-74642880D01*
X106918190Y-74642880D01*
X107013428Y-74690500D01*
X107061047Y-74738119D01*
X107108666Y-74833357D01*
X107108666Y-74928595D01*
X107061047Y-75071452D01*
X106489619Y-75642880D01*
X107108666Y-75642880D01*
X104394380Y-98442380D02*
X104061047Y-97966190D01*
X103822952Y-98442380D02*
X103822952Y-97442380D01*
X104203904Y-97442380D01*
X104299142Y-97490000D01*
X104346761Y-97537619D01*
X104394380Y-97632857D01*
X104394380Y-97775714D01*
X104346761Y-97870952D01*
X104299142Y-97918571D01*
X104203904Y-97966190D01*
X103822952Y-97966190D01*
X104822952Y-97918571D02*
X105156285Y-97918571D01*
X105299142Y-98442380D02*
X104822952Y-98442380D01*
X104822952Y-97442380D01*
X105299142Y-97442380D01*
X106061047Y-97918571D02*
X105727714Y-97918571D01*
X105727714Y-98442380D02*
X105727714Y-97442380D01*
X106203904Y-97442380D01*
X106489619Y-97442380D02*
X107108666Y-97442380D01*
X106775333Y-97823333D01*
X106918190Y-97823333D01*
X107013428Y-97870952D01*
X107061047Y-97918571D01*
X107108666Y-98013809D01*
X107108666Y-98251904D01*
X107061047Y-98347142D01*
X107013428Y-98394761D01*
X106918190Y-98442380D01*
X106632476Y-98442380D01*
X106537238Y-98394761D01*
X106489619Y-98347142D01*
X177894380Y-75742880D02*
X177561047Y-75266690D01*
X177322952Y-75742880D02*
X177322952Y-74742880D01*
X177703904Y-74742880D01*
X177799142Y-74790500D01*
X177846761Y-74838119D01*
X177894380Y-74933357D01*
X177894380Y-75076214D01*
X177846761Y-75171452D01*
X177799142Y-75219071D01*
X177703904Y-75266690D01*
X177322952Y-75266690D01*
X178322952Y-75219071D02*
X178656285Y-75219071D01*
X178799142Y-75742880D02*
X178322952Y-75742880D01*
X178322952Y-74742880D01*
X178799142Y-74742880D01*
X179561047Y-75219071D02*
X179227714Y-75219071D01*
X179227714Y-75742880D02*
X179227714Y-74742880D01*
X179703904Y-74742880D01*
X180608666Y-75742880D02*
X180037238Y-75742880D01*
X180322952Y-75742880D02*
X180322952Y-74742880D01*
X180227714Y-74885738D01*
X180132476Y-74980976D01*
X180037238Y-75028595D01*
X177894380Y-98542380D02*
X177561047Y-98066190D01*
X177322952Y-98542380D02*
X177322952Y-97542380D01*
X177703904Y-97542380D01*
X177799142Y-97590000D01*
X177846761Y-97637619D01*
X177894380Y-97732857D01*
X177894380Y-97875714D01*
X177846761Y-97970952D01*
X177799142Y-98018571D01*
X177703904Y-98066190D01*
X177322952Y-98066190D01*
X178322952Y-98018571D02*
X178656285Y-98018571D01*
X178799142Y-98542380D02*
X178322952Y-98542380D01*
X178322952Y-97542380D01*
X178799142Y-97542380D01*
X179561047Y-98018571D02*
X179227714Y-98018571D01*
X179227714Y-98542380D02*
X179227714Y-97542380D01*
X179703904Y-97542380D01*
X180513428Y-97875714D02*
X180513428Y-98542380D01*
X180275333Y-97494761D02*
X180037238Y-98209047D01*
X180656285Y-98209047D01*
X181507380Y-92208095D02*
X182316904Y-92208095D01*
X182412142Y-92160476D01*
X182459761Y-92112857D01*
X182507380Y-92017619D01*
X182507380Y-91827142D01*
X182459761Y-91731904D01*
X182412142Y-91684285D01*
X182316904Y-91636666D01*
X181507380Y-91636666D01*
X182459761Y-91208095D02*
X182507380Y-91065238D01*
X182507380Y-90827142D01*
X182459761Y-90731904D01*
X182412142Y-90684285D01*
X182316904Y-90636666D01*
X182221666Y-90636666D01*
X182126428Y-90684285D01*
X182078809Y-90731904D01*
X182031190Y-90827142D01*
X181983571Y-91017619D01*
X181935952Y-91112857D01*
X181888333Y-91160476D01*
X181793095Y-91208095D01*
X181697857Y-91208095D01*
X181602619Y-91160476D01*
X181555000Y-91112857D01*
X181507380Y-91017619D01*
X181507380Y-90779523D01*
X181555000Y-90636666D01*
X181983571Y-89874761D02*
X182031190Y-89731904D01*
X182078809Y-89684285D01*
X182174047Y-89636666D01*
X182316904Y-89636666D01*
X182412142Y-89684285D01*
X182459761Y-89731904D01*
X182507380Y-89827142D01*
X182507380Y-90208095D01*
X181507380Y-90208095D01*
X181507380Y-89874761D01*
X181555000Y-89779523D01*
X181602619Y-89731904D01*
X181697857Y-89684285D01*
X181793095Y-89684285D01*
X181888333Y-89731904D01*
X181935952Y-89779523D01*
X181983571Y-89874761D01*
X181983571Y-90208095D01*
X182507380Y-88684285D02*
X182507380Y-89255714D01*
X182507380Y-88970000D02*
X181507380Y-88970000D01*
X181650238Y-89065238D01*
X181745476Y-89160476D01*
X181793095Y-89255714D01*
X126668666Y-94722380D02*
X126668666Y-95436666D01*
X126621047Y-95579523D01*
X126525809Y-95674761D01*
X126382952Y-95722380D01*
X126287714Y-95722380D01*
X127668666Y-95722380D02*
X127097238Y-95722380D01*
X127382952Y-95722380D02*
X127382952Y-94722380D01*
X127287714Y-94865238D01*
X127192476Y-94960476D01*
X127097238Y-95008095D01*
X159331523Y-99427142D02*
X159283904Y-99474761D01*
X159141047Y-99522380D01*
X159045809Y-99522380D01*
X158902952Y-99474761D01*
X158807714Y-99379523D01*
X158760095Y-99284285D01*
X158712476Y-99093809D01*
X158712476Y-98950952D01*
X158760095Y-98760476D01*
X158807714Y-98665238D01*
X158902952Y-98570000D01*
X159045809Y-98522380D01*
X159141047Y-98522380D01*
X159283904Y-98570000D01*
X159331523Y-98617619D01*
X159760095Y-99522380D02*
X159760095Y-98522380D01*
X160331523Y-99522380D01*
X160331523Y-98522380D01*
X160712476Y-98522380D02*
X161331523Y-98522380D01*
X160998190Y-98903333D01*
X161141047Y-98903333D01*
X161236285Y-98950952D01*
X161283904Y-98998571D01*
X161331523Y-99093809D01*
X161331523Y-99331904D01*
X161283904Y-99427142D01*
X161236285Y-99474761D01*
X161141047Y-99522380D01*
X160855333Y-99522380D01*
X160760095Y-99474761D01*
X160712476Y-99427142D01*
X159331523Y-81657642D02*
X159283904Y-81705261D01*
X159141047Y-81752880D01*
X159045809Y-81752880D01*
X158902952Y-81705261D01*
X158807714Y-81610023D01*
X158760095Y-81514785D01*
X158712476Y-81324309D01*
X158712476Y-81181452D01*
X158760095Y-80990976D01*
X158807714Y-80895738D01*
X158902952Y-80800500D01*
X159045809Y-80752880D01*
X159141047Y-80752880D01*
X159283904Y-80800500D01*
X159331523Y-80848119D01*
X159760095Y-81752880D02*
X159760095Y-80752880D01*
X160331523Y-81752880D01*
X160331523Y-80752880D01*
X161331523Y-81752880D02*
X160760095Y-81752880D01*
X161045809Y-81752880D02*
X161045809Y-80752880D01*
X160950571Y-80895738D01*
X160855333Y-80990976D01*
X160760095Y-81038595D01*
X121231523Y-81667642D02*
X121183904Y-81715261D01*
X121041047Y-81762880D01*
X120945809Y-81762880D01*
X120802952Y-81715261D01*
X120707714Y-81620023D01*
X120660095Y-81524785D01*
X120612476Y-81334309D01*
X120612476Y-81191452D01*
X120660095Y-81000976D01*
X120707714Y-80905738D01*
X120802952Y-80810500D01*
X120945809Y-80762880D01*
X121041047Y-80762880D01*
X121183904Y-80810500D01*
X121231523Y-80858119D01*
X121660095Y-81762880D02*
X121660095Y-80762880D01*
X122231523Y-81762880D01*
X122231523Y-80762880D01*
X122660095Y-80858119D02*
X122707714Y-80810500D01*
X122802952Y-80762880D01*
X123041047Y-80762880D01*
X123136285Y-80810500D01*
X123183904Y-80858119D01*
X123231523Y-80953357D01*
X123231523Y-81048595D01*
X123183904Y-81191452D01*
X122612476Y-81762880D01*
X123231523Y-81762880D01*
M02*
