G04 #@! TF.GenerationSoftware,KiCad,Pcbnew,(5.1.7)-1*
G04 #@! TF.CreationDate,2020-12-20T14:57:21+09:00*
G04 #@! TF.ProjectId,pcbkicad,7063626b-6963-4616-942e-6b696361645f,rev?*
G04 #@! TF.SameCoordinates,Original*
G04 #@! TF.FileFunction,Soldermask,Top*
G04 #@! TF.FilePolarity,Negative*
%FSLAX46Y46*%
G04 Gerber Fmt 4.6, Leading zero omitted, Abs format (unit mm)*
G04 Created by KiCad (PCBNEW (5.1.7)-1) date 2020-12-20 14:57:21*
%MOMM*%
%LPD*%
G01*
G04 APERTURE LIST*
%ADD10C,2.500000*%
%ADD11R,1.400000X1.600000*%
%ADD12O,1.600000X0.900000*%
%ADD13R,1.900000X1.900000*%
%ADD14R,1.350000X0.400000*%
%ADD15R,1.651000X1.651000*%
%ADD16C,1.651000*%
G04 APERTURE END LIST*
D10*
X105442000Y-78690500D03*
X105442000Y-101490000D03*
X178942000Y-78790500D03*
X178942000Y-101590000D03*
D11*
X184526080Y-87270000D03*
D12*
X186780000Y-87170000D03*
D13*
X186780000Y-89270000D03*
X186780000Y-91670000D03*
D12*
X186780000Y-93770000D03*
D11*
X184526080Y-93870000D03*
D14*
X184105000Y-89172060D03*
X184105000Y-89822300D03*
X184105000Y-90470000D03*
X184105000Y-91117700D03*
X184105000Y-91767940D03*
D15*
X130812000Y-101620000D03*
D16*
X128272000Y-101620000D03*
X125732000Y-101620000D03*
D15*
X123192000Y-101620000D03*
D16*
X123192000Y-99080000D03*
X125732000Y-99080000D03*
X128272000Y-99080000D03*
X130812000Y-99080000D03*
X151132000Y-101620000D03*
X153672000Y-101620000D03*
X156212000Y-101620000D03*
X158752000Y-101620000D03*
X161292000Y-101620000D03*
X163832000Y-101620000D03*
X166372000Y-101620000D03*
D15*
X168912000Y-101620000D03*
X168912000Y-78760500D03*
D16*
X166372000Y-78760500D03*
X163832000Y-78760500D03*
X161292000Y-78760500D03*
X158752000Y-78760500D03*
X156212000Y-78760500D03*
X153672000Y-78760500D03*
X151132000Y-78760500D03*
D15*
X113032000Y-78760500D03*
D16*
X115572000Y-78760500D03*
X118112000Y-78760500D03*
X120652000Y-78760500D03*
X123192000Y-78760500D03*
X125732000Y-78760500D03*
X128272000Y-78760500D03*
X130812000Y-78760500D03*
M02*
