G04 #@! TF.GenerationSoftware,KiCad,Pcbnew,(5.1.7)-1*
G04 #@! TF.CreationDate,2020-12-20T14:57:21+09:00*
G04 #@! TF.ProjectId,pcbkicad,7063626b-6963-4616-942e-6b696361645f,rev?*
G04 #@! TF.SameCoordinates,Original*
G04 #@! TF.FileFunction,Copper,L2,Bot*
G04 #@! TF.FilePolarity,Positive*
%FSLAX46Y46*%
G04 Gerber Fmt 4.6, Leading zero omitted, Abs format (unit mm)*
G04 Created by KiCad (PCBNEW (5.1.7)-1) date 2020-12-20 14:57:21*
%MOMM*%
%LPD*%
G01*
G04 APERTURE LIST*
G04 #@! TA.AperFunction,ComponentPad*
%ADD10O,1.600000X0.900000*%
G04 #@! TD*
G04 #@! TA.AperFunction,ComponentPad*
%ADD11R,1.651000X1.651000*%
G04 #@! TD*
G04 #@! TA.AperFunction,ComponentPad*
%ADD12C,1.651000*%
G04 #@! TD*
G04 #@! TA.AperFunction,Conductor*
%ADD13C,1.000000*%
G04 #@! TD*
G04 APERTURE END LIST*
D10*
X186780000Y-87170000D03*
X186780000Y-93770000D03*
D11*
X130812000Y-101620000D03*
D12*
X128272000Y-101620000D03*
X125732000Y-101620000D03*
D11*
X123192000Y-101620000D03*
D12*
X123192000Y-99080000D03*
X125732000Y-99080000D03*
X128272000Y-99080000D03*
X130812000Y-99080000D03*
X151132000Y-101620000D03*
X153672000Y-101620000D03*
X156212000Y-101620000D03*
X158752000Y-101620000D03*
X161292000Y-101620000D03*
X163832000Y-101620000D03*
X166372000Y-101620000D03*
D11*
X168912000Y-101620000D03*
X168912000Y-78760500D03*
D12*
X166372000Y-78760500D03*
X163832000Y-78760500D03*
X161292000Y-78760500D03*
X158752000Y-78760500D03*
X156212000Y-78760500D03*
X153672000Y-78760500D03*
X151132000Y-78760500D03*
D11*
X113032000Y-78760500D03*
D12*
X115572000Y-78760500D03*
X118112000Y-78760500D03*
X120652000Y-78760500D03*
X123192000Y-78760500D03*
X125732000Y-78760500D03*
X128272000Y-78760500D03*
X130812000Y-78760500D03*
D13*
X125732000Y-78760500D02*
X127289400Y-77203100D01*
X127289400Y-77203100D02*
X159734600Y-77203100D01*
X159734600Y-77203100D02*
X161292000Y-78760500D01*
X151132000Y-101620000D02*
X152670900Y-103158900D01*
X152670900Y-103158900D02*
X159753100Y-103158900D01*
X159753100Y-103158900D02*
X161292000Y-101620000D01*
X125732000Y-101747900D02*
X127130000Y-103145900D01*
X127130000Y-103145900D02*
X149606100Y-103145900D01*
X149606100Y-103145900D02*
X151132000Y-101620000D01*
X161292000Y-101620000D02*
X162828200Y-103156200D01*
X162828200Y-103156200D02*
X170037200Y-103156200D01*
X170037200Y-103156200D02*
X170437900Y-102755500D01*
X170437900Y-102755500D02*
X170437900Y-86819100D01*
X170437900Y-86819100D02*
X166372000Y-82753200D01*
X166372000Y-82753200D02*
X166372000Y-78760500D01*
X125732000Y-101747900D02*
X125732000Y-101620000D01*
X115763000Y-78760500D02*
X115763000Y-96832700D01*
X115763000Y-96832700D02*
X122076200Y-103145900D01*
X122076200Y-103145900D02*
X124334000Y-103145900D01*
X124334000Y-103145900D02*
X125732000Y-101747900D01*
X120652000Y-78760500D02*
X119078500Y-77187000D01*
X119078500Y-77187000D02*
X117336500Y-77187000D01*
X117336500Y-77187000D02*
X115763000Y-78760500D01*
X115763000Y-78760500D02*
X115572000Y-78760500D01*
X123192000Y-99080000D02*
X123192000Y-101620000D01*
X118112000Y-78760500D02*
X131977600Y-92626100D01*
X131977600Y-92626100D02*
X157378100Y-92626100D01*
X157378100Y-92626100D02*
X166372000Y-101620000D01*
X163832000Y-101620000D02*
X159750500Y-97538500D01*
X159750500Y-97538500D02*
X127273500Y-97538500D01*
X127273500Y-97538500D02*
X125732000Y-99080000D01*
X128272000Y-99080000D02*
X128272000Y-101620000D01*
M02*
