M48
; DRILL file {KiCad (5.1.7)-1} date 12/20/20 14:57:37
; FORMAT={-:-/ absolute / metric / decimal}
; #@! TF.CreationDate,2020-12-20T14:57:37+09:00
; #@! TF.GenerationSoftware,Kicad,Pcbnew,(5.1.7)-1
FMAT,2
METRIC
T1C0.500
T2C0.889
T3C2.500
%
G90
G05
T2
X113.032Y-78.76
X115.572Y-78.76
X118.112Y-78.76
X120.652Y-78.76
X123.192Y-78.76
X125.732Y-78.76
X128.272Y-78.76
X130.812Y-78.76
X151.132Y-78.76
X153.672Y-78.76
X156.212Y-78.76
X158.752Y-78.76
X161.292Y-78.76
X163.832Y-78.76
X166.372Y-78.76
X168.912Y-78.76
X151.132Y-101.62
X153.672Y-101.62
X156.212Y-101.62
X158.752Y-101.62
X161.292Y-101.62
X163.832Y-101.62
X166.372Y-101.62
X168.912Y-101.62
X123.192Y-99.08
X123.192Y-101.62
X125.732Y-99.08
X125.732Y-101.62
X128.272Y-99.08
X128.272Y-101.62
X130.812Y-99.08
X130.812Y-101.62
T3
X178.942Y-78.79
X105.442Y-78.691
X178.942Y-101.59
X105.442Y-101.49
T1
G00X187.13Y-87.17
M15
G01X186.43Y-87.17
M16
G05
G00X187.13Y-93.77
M15
G01X186.43Y-93.77
M16
G05
T0
M30
