%TF.GenerationSoftware,KiCad,Pcbnew,(5.1.7)-1*%
%TF.CreationDate,2020-12-19T10:57:03+09:00*%
%TF.ProjectId,pcbkicad,7063626b-6963-4616-942e-6b696361645f,rev?*%
%TF.SameCoordinates,Original*%
%TF.FileFunction,Copper,L1,Top*%
%TF.FilePolarity,Positive*%
%FSLAX46Y46*%
G04 Gerber Fmt 4.6, Leading zero omitted, Abs format (unit mm)*
G04 Created by KiCad (PCBNEW (5.1.7)-1) date 2020-12-19 10:57:03*
%MOMM*%
%LPD*%
G01*
G04 APERTURE LIST*
%TA.AperFunction,SMDPad,CuDef*%
%ADD10R,1.400000X1.600000*%
%TD*%
%TA.AperFunction,ComponentPad*%
%ADD11O,1.600000X0.900000*%
%TD*%
%TA.AperFunction,SMDPad,CuDef*%
%ADD12R,1.900000X1.900000*%
%TD*%
%TA.AperFunction,SMDPad,CuDef*%
%ADD13R,1.350000X0.400000*%
%TD*%
%TA.AperFunction,ComponentPad*%
%ADD14R,1.651000X1.651000*%
%TD*%
%TA.AperFunction,ComponentPad*%
%ADD15C,1.651000*%
%TD*%
%TA.AperFunction,ViaPad*%
%ADD16C,0.800000*%
%TD*%
%TA.AperFunction,Conductor*%
%ADD17C,1.000000*%
%TD*%
%TA.AperFunction,Conductor*%
%ADD18C,0.399800*%
%TD*%
G04 APERTURE END LIST*
D10*
%TO.P,USB1,11*%
%TO.N,Net-(USB1-Pad10)*%
X142526080Y-86970000D03*
D11*
%TO.P,USB1,10*%
X144780000Y-86870000D03*
D12*
%TO.P,USB1,9*%
%TO.N,Net-(USB1-Pad8)*%
X144780000Y-88970000D03*
%TO.P,USB1,8*%
X144780000Y-91370000D03*
D11*
%TO.P,USB1,7*%
%TO.N,Net-(USB1-Pad7)*%
X144780000Y-93470000D03*
D10*
%TO.P,USB1,6*%
%TO.N,Net-(USB1-Pad6)*%
X142526080Y-93570000D03*
D13*
%TO.P,USB1,5*%
%TO.N,Net-(CN1-Pad2)*%
X142105000Y-88872060D03*
%TO.P,USB1,4*%
%TO.N,Net-(USB1-Pad4)*%
X142105000Y-89522300D03*
%TO.P,USB1,3*%
%TO.N,Net-(USB1-Pad3)*%
X142105000Y-90170000D03*
%TO.P,USB1,2*%
%TO.N,Net-(USB1-Pad2)*%
X142105000Y-90817700D03*
%TO.P,USB1,1*%
%TO.N,Net-(CN1-Pad1)*%
X142105000Y-91467940D03*
%TD*%
D14*
%TO.P,J1,4*%
%TO.N,Net-(CN3-Pad7)*%
X104140000Y-100330000D03*
D15*
%TO.P,J1,3*%
%TO.N,Net-(CN3-Pad6)*%
X101600000Y-100330000D03*
%TO.P,J1,2*%
%TO.N,Net-(CN1-Pad2)*%
X99060000Y-100330000D03*
D14*
%TO.P,J1,1*%
%TO.N,Net-(CN1-Pad1)*%
X96520000Y-100330000D03*
D15*
%TO.P,J1,8*%
X96520000Y-97790000D03*
%TO.P,J1,7*%
%TO.N,Net-(CN3-Pad3)*%
X99060000Y-97790000D03*
%TO.P,J1,6*%
%TO.N,Net-(CN3-Pad6)*%
X101600000Y-97790000D03*
%TO.P,J1,5*%
%TO.N,Net-(CN3-Pad7)*%
X104140000Y-97790000D03*
%TD*%
%TO.P,CN3,8*%
%TO.N,Net-(CN1-Pad2)*%
X124460000Y-101600000D03*
%TO.P,CN3,7*%
%TO.N,Net-(CN3-Pad7)*%
X127000000Y-101600000D03*
%TO.P,CN3,6*%
%TO.N,Net-(CN3-Pad6)*%
X129540000Y-101600000D03*
%TO.P,CN3,5*%
%TO.N,Net-(CN3-Pad5)*%
X132080000Y-101600000D03*
%TO.P,CN3,4*%
%TO.N,Net-(CN1-Pad2)*%
X134620000Y-101600000D03*
%TO.P,CN3,3*%
%TO.N,Net-(CN3-Pad3)*%
X137160000Y-101600000D03*
%TO.P,CN3,2*%
%TO.N,Net-(CN2-Pad3)*%
X139700000Y-101600000D03*
D14*
%TO.P,CN3,1*%
%TO.N,Net-(CN3-Pad1)*%
X142240000Y-101600000D03*
%TD*%
%TO.P,CN1,1*%
%TO.N,Net-(CN1-Pad1)*%
X142240000Y-78740000D03*
D15*
%TO.P,CN1,2*%
%TO.N,Net-(CN1-Pad2)*%
X139700000Y-78740000D03*
%TO.P,CN1,3*%
%TO.N,Net-(CN1-Pad3)*%
X137160000Y-78740000D03*
%TO.P,CN1,4*%
%TO.N,Net-(CN1-Pad4)*%
X134620000Y-78740000D03*
%TO.P,CN1,5*%
%TO.N,Net-(CN1-Pad5)*%
X132080000Y-78740000D03*
%TO.P,CN1,6*%
%TO.N,Net-(CN1-Pad6)*%
X129540000Y-78740000D03*
%TO.P,CN1,7*%
%TO.N,Net-(CN1-Pad7)*%
X127000000Y-78740000D03*
%TO.P,CN1,8*%
%TO.N,Net-(CN1-Pad8)*%
X124460000Y-78740000D03*
%TD*%
D14*
%TO.P,CN2,1*%
%TO.N,Net-(CN1-Pad1)*%
X86360000Y-78740000D03*
D15*
%TO.P,CN2,2*%
%TO.N,Net-(CN1-Pad2)*%
X88900000Y-78740000D03*
%TO.P,CN2,3*%
%TO.N,Net-(CN2-Pad3)*%
X91440000Y-78740000D03*
%TO.P,CN2,4*%
%TO.N,Net-(CN1-Pad2)*%
X93980000Y-78740000D03*
%TO.P,CN2,5*%
%TO.N,Net-(CN1-Pad6)*%
X96520000Y-78740000D03*
%TO.P,CN2,6*%
%TO.N,Net-(CN1-Pad4)*%
X99060000Y-78740000D03*
%TO.P,CN2,7*%
%TO.N,Net-(CN1-Pad5)*%
X101600000Y-78740000D03*
%TO.P,CN2,8*%
%TO.N,Net-(CN2-Pad8)*%
X104140000Y-78740000D03*
%TD*%
D16*
%TO.N,Net-(CN1-Pad2)*%
X141115300Y-88103000D03*
%TO.N,Net-(CN1-Pad1)*%
X106032600Y-92325500D03*
%TD*%
D17*
%TO.N,Net-(CN1-Pad6)*%
X96520000Y-78740000D02*
X98051700Y-80271700D01*
X98051700Y-80271700D02*
X128008300Y-80271700D01*
X128008300Y-80271700D02*
X129540000Y-78740000D01*
%TO.N,Net-(CN1-Pad2)*%
X141115300Y-88103000D02*
X141482700Y-88470400D01*
X141482700Y-88470400D02*
X141703300Y-88470400D01*
D18*
X141703300Y-88470400D02*
X142105000Y-88872100D01*
%TO.N,Net-(CN1-Pad1)*%
X141854800Y-91718100D02*
X142105000Y-91467900D01*
D17*
X139904400Y-91717900D02*
X139904600Y-91718100D01*
X139904600Y-91718100D02*
X141854800Y-91718100D01*
X139904400Y-91717900D02*
X139296800Y-92325500D01*
X139296800Y-92325500D02*
X106032600Y-92325500D01*
X142240000Y-80565500D02*
X139904400Y-82901100D01*
X139904400Y-82901100D02*
X139904400Y-91717900D01*
X142240000Y-78740000D02*
X142240000Y-80565500D01*
%TO.N,Net-(CN2-Pad3)*%
X91440000Y-78740000D02*
X91440000Y-79513300D01*
X91440000Y-79513300D02*
X105751600Y-93824900D01*
X105751600Y-93824900D02*
X131924900Y-93824900D01*
X131924900Y-93824900D02*
X139700000Y-101600000D01*
%TO.N,Net-(CN3-Pad3)*%
X137160000Y-101600000D02*
X130615000Y-95055000D01*
X130615000Y-95055000D02*
X101795000Y-95055000D01*
X101795000Y-95055000D02*
X99060000Y-97790000D01*
%TO.N,Net-(CN3-Pad6)*%
X101600000Y-97790000D02*
X103130300Y-96259700D01*
X103130300Y-96259700D02*
X124199700Y-96259700D01*
X124199700Y-96259700D02*
X129540000Y-101600000D01*
%TO.N,Net-(CN3-Pad7)*%
X104140000Y-100330000D02*
X105965500Y-100330000D01*
X127000000Y-101600000D02*
X125472000Y-100072000D01*
X125472000Y-100072000D02*
X106223500Y-100072000D01*
X106223500Y-100072000D02*
X105965500Y-100330000D01*
%TO.N,Net-(USB1-Pad8)*%
X144780000Y-91370000D02*
X144780000Y-88970000D01*
%TO.N,Net-(USB1-Pad10)*%
X142526100Y-86970000D02*
X144226100Y-86970000D01*
X144780000Y-86870000D02*
X144326100Y-86870000D01*
X144326100Y-86870000D02*
X144226100Y-86970000D01*
%TD*%
M02*
