%TF.GenerationSoftware,KiCad,Pcbnew,(5.1.7)-1*%
%TF.CreationDate,2020-12-19T10:57:03+09:00*%
%TF.ProjectId,pcbkicad,7063626b-6963-4616-942e-6b696361645f,rev?*%
%TF.SameCoordinates,Original*%
%TF.FileFunction,Legend,Top*%
%TF.FilePolarity,Positive*%
%FSLAX46Y46*%
G04 Gerber Fmt 4.6, Leading zero omitted, Abs format (unit mm)*
G04 Created by KiCad (PCBNEW (5.1.7)-1) date 2020-12-19 10:57:03*
%MOMM*%
%LPD*%
G01*
G04 APERTURE LIST*
%ADD10C,0.100000*%
%ADD11C,0.127000*%
%ADD12C,0.150000*%
G04 APERTURE END LIST*
D10*
%TO.C,USB1*%
X146895000Y-86600000D02*
X147505000Y-86095000D01*
D11*
X143805000Y-93720000D02*
X143405280Y-93720000D01*
X146903880Y-93720000D02*
X145730000Y-93720000D01*
X145705000Y-86620000D02*
X146903880Y-86620000D01*
X143397300Y-86620000D02*
X143798620Y-86620000D01*
X141830000Y-88520000D02*
X141830000Y-87895000D01*
X141830000Y-91820000D02*
X141830000Y-92620000D01*
X147505000Y-94220000D02*
X147505000Y-86120000D01*
X146930000Y-93720000D02*
X146930000Y-86620000D01*
X146930000Y-93745000D02*
X147505000Y-94220000D01*
%TO.C,J1*%
X95250000Y-96520000D02*
X105410000Y-96520000D01*
X95250000Y-101600000D02*
X95250000Y-96520000D01*
X105410000Y-101600000D02*
X95250000Y-101600000D01*
X105410000Y-96520000D02*
X105410000Y-101600000D01*
%TO.C,CN3*%
X123190000Y-100330000D02*
X143510000Y-100330000D01*
X123190000Y-102870000D02*
X123190000Y-100330000D01*
X143510000Y-102870000D02*
X123190000Y-102870000D01*
X143510000Y-100330000D02*
X143510000Y-102870000D01*
%TO.C,CN1*%
X143510000Y-77470000D02*
X143510000Y-80010000D01*
X143510000Y-80010000D02*
X123190000Y-80010000D01*
X123190000Y-80010000D02*
X123190000Y-77470000D01*
X123190000Y-77470000D02*
X143510000Y-77470000D01*
%TO.C,CN2*%
X85090000Y-80010000D02*
X85090000Y-77470000D01*
X85090000Y-77470000D02*
X105410000Y-77470000D01*
X105410000Y-77470000D02*
X105410000Y-80010000D01*
X105410000Y-80010000D02*
X85090000Y-80010000D01*
%TO.C,REF4*%
D12*
X136194380Y-91642880D02*
X135861047Y-91166690D01*
X135622952Y-91642880D02*
X135622952Y-90642880D01*
X136003904Y-90642880D01*
X136099142Y-90690500D01*
X136146761Y-90738119D01*
X136194380Y-90833357D01*
X136194380Y-90976214D01*
X136146761Y-91071452D01*
X136099142Y-91119071D01*
X136003904Y-91166690D01*
X135622952Y-91166690D01*
X136622952Y-91119071D02*
X136956285Y-91119071D01*
X137099142Y-91642880D02*
X136622952Y-91642880D01*
X136622952Y-90642880D01*
X137099142Y-90642880D01*
X137861047Y-91119071D02*
X137527714Y-91119071D01*
X137527714Y-91642880D02*
X137527714Y-90642880D01*
X138003904Y-90642880D01*
X138813428Y-90976214D02*
X138813428Y-91642880D01*
X138575333Y-90595261D02*
X138337238Y-91309547D01*
X138956285Y-91309547D01*
%TO.C,REF1*%
X136194380Y-81642880D02*
X135861047Y-81166690D01*
X135622952Y-81642880D02*
X135622952Y-80642880D01*
X136003904Y-80642880D01*
X136099142Y-80690500D01*
X136146761Y-80738119D01*
X136194380Y-80833357D01*
X136194380Y-80976214D01*
X136146761Y-81071452D01*
X136099142Y-81119071D01*
X136003904Y-81166690D01*
X135622952Y-81166690D01*
X136622952Y-81119071D02*
X136956285Y-81119071D01*
X137099142Y-81642880D02*
X136622952Y-81642880D01*
X136622952Y-80642880D01*
X137099142Y-80642880D01*
X137861047Y-81119071D02*
X137527714Y-81119071D01*
X137527714Y-81642880D02*
X137527714Y-80642880D01*
X138003904Y-80642880D01*
X138908666Y-81642880D02*
X138337238Y-81642880D01*
X138622952Y-81642880D02*
X138622952Y-80642880D01*
X138527714Y-80785738D01*
X138432476Y-80880976D01*
X138337238Y-80928595D01*
%TO.C,REF2*%
X91193880Y-81642880D02*
X90860547Y-81166690D01*
X90622452Y-81642880D02*
X90622452Y-80642880D01*
X91003404Y-80642880D01*
X91098642Y-80690500D01*
X91146261Y-80738119D01*
X91193880Y-80833357D01*
X91193880Y-80976214D01*
X91146261Y-81071452D01*
X91098642Y-81119071D01*
X91003404Y-81166690D01*
X90622452Y-81166690D01*
X91622452Y-81119071D02*
X91955785Y-81119071D01*
X92098642Y-81642880D02*
X91622452Y-81642880D01*
X91622452Y-80642880D01*
X92098642Y-80642880D01*
X92860547Y-81119071D02*
X92527214Y-81119071D01*
X92527214Y-81642880D02*
X92527214Y-80642880D01*
X93003404Y-80642880D01*
X93336738Y-80738119D02*
X93384357Y-80690500D01*
X93479595Y-80642880D01*
X93717690Y-80642880D01*
X93812928Y-80690500D01*
X93860547Y-80738119D01*
X93908166Y-80833357D01*
X93908166Y-80928595D01*
X93860547Y-81071452D01*
X93289119Y-81642880D01*
X93908166Y-81642880D01*
%TO.C,REF3*%
X91193880Y-91642880D02*
X90860547Y-91166690D01*
X90622452Y-91642880D02*
X90622452Y-90642880D01*
X91003404Y-90642880D01*
X91098642Y-90690500D01*
X91146261Y-90738119D01*
X91193880Y-90833357D01*
X91193880Y-90976214D01*
X91146261Y-91071452D01*
X91098642Y-91119071D01*
X91003404Y-91166690D01*
X90622452Y-91166690D01*
X91622452Y-91119071D02*
X91955785Y-91119071D01*
X92098642Y-91642880D02*
X91622452Y-91642880D01*
X91622452Y-90642880D01*
X92098642Y-90642880D01*
X92860547Y-91119071D02*
X92527214Y-91119071D01*
X92527214Y-91642880D02*
X92527214Y-90642880D01*
X93003404Y-90642880D01*
X93289119Y-90642880D02*
X93908166Y-90642880D01*
X93574833Y-91023833D01*
X93717690Y-91023833D01*
X93812928Y-91071452D01*
X93860547Y-91119071D01*
X93908166Y-91214309D01*
X93908166Y-91452404D01*
X93860547Y-91547642D01*
X93812928Y-91595261D01*
X93717690Y-91642880D01*
X93431976Y-91642880D01*
X93336738Y-91595261D01*
X93289119Y-91547642D01*
%TO.C,USB1*%
X139507380Y-91908095D02*
X140316904Y-91908095D01*
X140412142Y-91860476D01*
X140459761Y-91812857D01*
X140507380Y-91717619D01*
X140507380Y-91527142D01*
X140459761Y-91431904D01*
X140412142Y-91384285D01*
X140316904Y-91336666D01*
X139507380Y-91336666D01*
X140459761Y-90908095D02*
X140507380Y-90765238D01*
X140507380Y-90527142D01*
X140459761Y-90431904D01*
X140412142Y-90384285D01*
X140316904Y-90336666D01*
X140221666Y-90336666D01*
X140126428Y-90384285D01*
X140078809Y-90431904D01*
X140031190Y-90527142D01*
X139983571Y-90717619D01*
X139935952Y-90812857D01*
X139888333Y-90860476D01*
X139793095Y-90908095D01*
X139697857Y-90908095D01*
X139602619Y-90860476D01*
X139555000Y-90812857D01*
X139507380Y-90717619D01*
X139507380Y-90479523D01*
X139555000Y-90336666D01*
X139983571Y-89574761D02*
X140031190Y-89431904D01*
X140078809Y-89384285D01*
X140174047Y-89336666D01*
X140316904Y-89336666D01*
X140412142Y-89384285D01*
X140459761Y-89431904D01*
X140507380Y-89527142D01*
X140507380Y-89908095D01*
X139507380Y-89908095D01*
X139507380Y-89574761D01*
X139555000Y-89479523D01*
X139602619Y-89431904D01*
X139697857Y-89384285D01*
X139793095Y-89384285D01*
X139888333Y-89431904D01*
X139935952Y-89479523D01*
X139983571Y-89574761D01*
X139983571Y-89908095D01*
X140507380Y-88384285D02*
X140507380Y-88955714D01*
X140507380Y-88670000D02*
X139507380Y-88670000D01*
X139650238Y-88765238D01*
X139745476Y-88860476D01*
X139793095Y-88955714D01*
%TO.C,J1*%
X99996666Y-93432380D02*
X99996666Y-94146666D01*
X99949047Y-94289523D01*
X99853809Y-94384761D01*
X99710952Y-94432380D01*
X99615714Y-94432380D01*
X100996666Y-94432380D02*
X100425238Y-94432380D01*
X100710952Y-94432380D02*
X100710952Y-93432380D01*
X100615714Y-93575238D01*
X100520476Y-93670476D01*
X100425238Y-93718095D01*
%TO.C,CN3*%
X132659523Y-99407142D02*
X132611904Y-99454761D01*
X132469047Y-99502380D01*
X132373809Y-99502380D01*
X132230952Y-99454761D01*
X132135714Y-99359523D01*
X132088095Y-99264285D01*
X132040476Y-99073809D01*
X132040476Y-98930952D01*
X132088095Y-98740476D01*
X132135714Y-98645238D01*
X132230952Y-98550000D01*
X132373809Y-98502380D01*
X132469047Y-98502380D01*
X132611904Y-98550000D01*
X132659523Y-98597619D01*
X133088095Y-99502380D02*
X133088095Y-98502380D01*
X133659523Y-99502380D01*
X133659523Y-98502380D01*
X134040476Y-98502380D02*
X134659523Y-98502380D01*
X134326190Y-98883333D01*
X134469047Y-98883333D01*
X134564285Y-98930952D01*
X134611904Y-98978571D01*
X134659523Y-99073809D01*
X134659523Y-99311904D01*
X134611904Y-99407142D01*
X134564285Y-99454761D01*
X134469047Y-99502380D01*
X134183333Y-99502380D01*
X134088095Y-99454761D01*
X134040476Y-99407142D01*
%TO.C,CN1*%
X132659523Y-81637142D02*
X132611904Y-81684761D01*
X132469047Y-81732380D01*
X132373809Y-81732380D01*
X132230952Y-81684761D01*
X132135714Y-81589523D01*
X132088095Y-81494285D01*
X132040476Y-81303809D01*
X132040476Y-81160952D01*
X132088095Y-80970476D01*
X132135714Y-80875238D01*
X132230952Y-80780000D01*
X132373809Y-80732380D01*
X132469047Y-80732380D01*
X132611904Y-80780000D01*
X132659523Y-80827619D01*
X133088095Y-81732380D02*
X133088095Y-80732380D01*
X133659523Y-81732380D01*
X133659523Y-80732380D01*
X134659523Y-81732380D02*
X134088095Y-81732380D01*
X134373809Y-81732380D02*
X134373809Y-80732380D01*
X134278571Y-80875238D01*
X134183333Y-80970476D01*
X134088095Y-81018095D01*
%TO.C,CN2*%
X94559523Y-81647142D02*
X94511904Y-81694761D01*
X94369047Y-81742380D01*
X94273809Y-81742380D01*
X94130952Y-81694761D01*
X94035714Y-81599523D01*
X93988095Y-81504285D01*
X93940476Y-81313809D01*
X93940476Y-81170952D01*
X93988095Y-80980476D01*
X94035714Y-80885238D01*
X94130952Y-80790000D01*
X94273809Y-80742380D01*
X94369047Y-80742380D01*
X94511904Y-80790000D01*
X94559523Y-80837619D01*
X94988095Y-81742380D02*
X94988095Y-80742380D01*
X95559523Y-81742380D01*
X95559523Y-80742380D01*
X95988095Y-80837619D02*
X96035714Y-80790000D01*
X96130952Y-80742380D01*
X96369047Y-80742380D01*
X96464285Y-80790000D01*
X96511904Y-80837619D01*
X96559523Y-80932857D01*
X96559523Y-81028095D01*
X96511904Y-81170952D01*
X95940476Y-81742380D01*
X96559523Y-81742380D01*
%TD*%
M02*
