M48
; DRILL file {KiCad (5.1.7)-1} date 12/19/20 10:58:11
; FORMAT={-:-/ absolute / metric / decimal}
; #@! TF.CreationDate,2020-12-19T10:58:11+09:00
; #@! TF.GenerationSoftware,Kicad,Pcbnew,(5.1.7)-1
; #@! TF.FileFunction,Plated,1,2,PTH
FMAT,2
METRIC
T1C0.400
T2C0.500
T3C0.889
%
G90
G05
T1
X106.033Y-92.325
X141.115Y-88.103
T3
X124.46Y-78.74
X127.0Y-78.74
X129.54Y-78.74
X132.08Y-78.74
X134.62Y-78.74
X137.16Y-78.74
X139.7Y-78.74
X142.24Y-78.74
X86.36Y-78.74
X88.9Y-78.74
X91.44Y-78.74
X93.98Y-78.74
X96.52Y-78.74
X99.06Y-78.74
X101.6Y-78.74
X104.14Y-78.74
X124.46Y-101.6
X127.0Y-101.6
X129.54Y-101.6
X132.08Y-101.6
X134.62Y-101.6
X137.16Y-101.6
X139.7Y-101.6
X142.24Y-101.6
X96.52Y-97.79
X96.52Y-100.33
X99.06Y-97.79
X99.06Y-100.33
X101.6Y-97.79
X101.6Y-100.33
X104.14Y-97.79
X104.14Y-100.33
T2
G00X145.13Y-86.87
M15
G01X144.43Y-86.87
M16
G05
G00X145.13Y-93.47
M15
G01X144.43Y-93.47
M16
G05
T0
M30
