%TF.GenerationSoftware,KiCad,Pcbnew,(5.1.7)-1*%
%TF.CreationDate,2020-12-19T10:57:03+09:00*%
%TF.ProjectId,pcbkicad,7063626b-6963-4616-942e-6b696361645f,rev?*%
%TF.SameCoordinates,Original*%
%TF.FileFunction,Soldermask,Top*%
%TF.FilePolarity,Negative*%
%FSLAX46Y46*%
G04 Gerber Fmt 4.6, Leading zero omitted, Abs format (unit mm)*
G04 Created by KiCad (PCBNEW (5.1.7)-1) date 2020-12-19 10:57:03*
%MOMM*%
%LPD*%
G01*
G04 APERTURE LIST*
%ADD10C,3.000000*%
%ADD11R,1.400000X1.600000*%
%ADD12O,1.600000X0.900000*%
%ADD13R,1.900000X1.900000*%
%ADD14R,1.350000X0.400000*%
%ADD15R,1.651000X1.651000*%
%ADD16C,1.651000*%
G04 APERTURE END LIST*
D10*
%TO.C,REF4*%
X137242000Y-95190500D03*
%TD*%
%TO.C,REF1*%
X137242000Y-85190500D03*
%TD*%
%TO.C,REF2*%
X92241500Y-85190500D03*
%TD*%
%TO.C,REF3*%
X92241500Y-95190500D03*
%TD*%
D11*
%TO.C,USB1*%
X142526080Y-86970000D03*
D12*
X144780000Y-86870000D03*
D13*
X144780000Y-88970000D03*
X144780000Y-91370000D03*
D12*
X144780000Y-93470000D03*
D11*
X142526080Y-93570000D03*
D14*
X142105000Y-88872060D03*
X142105000Y-89522300D03*
X142105000Y-90170000D03*
X142105000Y-90817700D03*
X142105000Y-91467940D03*
%TD*%
D15*
%TO.C,J1*%
X104140000Y-100330000D03*
D16*
X101600000Y-100330000D03*
X99060000Y-100330000D03*
D15*
X96520000Y-100330000D03*
D16*
X96520000Y-97790000D03*
X99060000Y-97790000D03*
X101600000Y-97790000D03*
X104140000Y-97790000D03*
%TD*%
%TO.C,CN3*%
X124460000Y-101600000D03*
X127000000Y-101600000D03*
X129540000Y-101600000D03*
X132080000Y-101600000D03*
X134620000Y-101600000D03*
X137160000Y-101600000D03*
X139700000Y-101600000D03*
D15*
X142240000Y-101600000D03*
%TD*%
%TO.C,CN1*%
X142240000Y-78740000D03*
D16*
X139700000Y-78740000D03*
X137160000Y-78740000D03*
X134620000Y-78740000D03*
X132080000Y-78740000D03*
X129540000Y-78740000D03*
X127000000Y-78740000D03*
X124460000Y-78740000D03*
%TD*%
D15*
%TO.C,CN2*%
X86360000Y-78740000D03*
D16*
X88900000Y-78740000D03*
X91440000Y-78740000D03*
X93980000Y-78740000D03*
X96520000Y-78740000D03*
X99060000Y-78740000D03*
X101600000Y-78740000D03*
X104140000Y-78740000D03*
%TD*%
M02*
